<?xml version="1.0" encoding="utf-8"?>
<!-- Generator: Adobe Illustrator 27.0.0, SVG Export Plug-In . SVG Version: 6.00 Build 0)  -->
<svg version="1.1" id="Layer_1" xmlns="http://www.w3.org/2000/svg" xmlns:xlink="http://www.w3.org/1999/xlink" x="0px" y="0px"
	 viewBox="0 0 453 144" style="enable-background:new 0 0 453 144;" xml:space="preserve">
<style type="text/css">
	.st0{fill:#231F20;}
</style>
<g>
	<path class="st0" d="M38.02,76.63c1.23,0,2.46,0.98,2.46,2.95c0,0.49-0.12,0.98-0.25,1.6c-1.23,4.8-3.2,11.56-3.2,11.56
		c4.43-7.87,16.11-34.06,24.1-34.06c0.25,0,0.49,0.12,0.74,0.12c1.97,0.49,3.44,2.34,3.44,5.04v0.37
		c-0.12,5.04-2.34,17.09-3.32,22.13c-0.25,1.48-0.49,2.34-0.49,2.34c0-0.12,0-0.12,0.12-0.12l-0.49,2.09
		c2.7-3.32,7.99-9.59,11.44-10.45c0.25-0.12,0.49-0.12,0.74-0.12c4.18,0,2.95,8.24,7.26,10.82c1.35,0.74,3.07,1.11,4.8,1.11
		c6.88,0,15.86-5.29,20.29-8.61c0.49-0.25,1.11-1.23,1.6-1.6c0.25-0.12,0.49-0.25,0.61-0.25c0.37,0,0.49,0.37,0.49,0.61
		s0,0.49-0.25,0.74c-5.04,3.81-15.99,10.33-24.1,10.33c-1.85,0-3.69-0.37-5.16-1.23c-4.8-2.7-3.44-9.84-6.39-9.84
		c-0.12,0-0.25,0.12-0.49,0.12c-4.43,1.11-11.07,10.82-11.07,10.82h-0.12l-0.12,0.12c-0.61,0.61-1.35,0.86-1.84,0.86
		c-0.74,0-1.35-0.49-1.35-1.48c0-0.25,0-0.61,0.12-0.98c0.98-3.57,5.41-19.31,6.15-27.05c0.12-0.49,0.12-0.98,0.12-1.48
		c0-1.72-0.61-2.83-1.35-3.2c-0.37-0.25-0.74-0.25-1.11-0.25c-6.89,0-19.8,31.11-23.24,37.01c-1.23,2.21-2.46,3.07-3.44,3.07
		c-0.86,0-1.6-0.74-1.97-1.72c-0.12-0.25-0.12-0.49-0.12-0.74c0-2.09,1.35-6.64,1.84-11.07V86.1c0-0.49-0.49-1.72-0.49-1.97
		c0.25-2.34,1.23-5.04,1.72-5.9C36.17,77.12,37.16,76.63,38.02,76.63z"/>
</g>
<g>
	<path class="st0" d="M120.52,82.9c6.02,0,11.44-0.49,14.02-1.97c0.25-0.12,0.37-0.12,0.61-0.12c0.49,0,0.74,0.25,0.74,0.61
		c0,0.25-0.12,0.61-0.37,0.86c-2.34,1.35-6.64,1.72-11.68,1.72c-2.58,0-5.29-0.12-8.11-0.25c-0.12,1.23-0.37,2.46-0.74,3.69
		c-0.62,2.34-1.48,4.55-2.46,6.27c-0.86,1.48-2.46,4.55-4.55,4.55c-0.74,0-1.35-0.25-2.09-0.86c-0.86-1.23-1.23-2.83-1.23-4.67
		c0-3.57,1.35-7.75,2.83-10.82c-2.09-0.98-3.32-2.34-3.32-4.3v-0.74c0.12-0.74,0.49-1.35,0.98-2.09l0.49-0.49h0.12
		c0.86-0.86,2.21-1.23,3.57-1.23c1.11,0,2.21,0.25,3.2,0.74c1.11,0.61,2.21,2.09,2.7,3.2l0.25,0.61c0.37,1.11,0.49,2.21,0.49,3.32
		c0,0.61-0.12,1.23-0.12,1.84C117.44,82.78,119.04,82.9,120.52,82.9z M105.39,77.12c0,0.25-0.12,0.49-0.12,0.74
		c0,1.48,0.98,2.58,2.58,3.44l0.61-1.11l0.37-0.37h-0.12l0.49-0.74c0.49-0.86,1.97-2.58,3.32-2.58c0.49,0,0.98,0.25,1.35,0.74
		c-0.37-0.86-1.23-1.84-2.09-2.21c-0.62-0.37-1.48-0.61-2.34-0.61c-0.74,0-1.48,0.25-2.21,0.49
		C106.01,75.52,105.52,76.39,105.39,77.12z M110.68,83.03c-1.72,3.93-2.95,9.22-2.95,11.93c0,0.98,0.25,1.6,0.62,1.6
		c0.61,0,1.48-0.98,2.95-3.57c0.98-1.6,1.85-3.69,2.34-5.78c0.37-1.23,0.61-2.46,0.74-3.57C113.14,83.52,111.79,83.27,110.68,83.03z
		 M114.49,82.78c0-0.61,0.12-1.23,0.12-1.84c0-0.98-0.12-1.97-0.37-2.71c-1.11,0.37-2.21,1.97-3.2,4.06
		C112.03,82.53,113.26,82.66,114.49,82.78z"/>
</g>
<g>
	<path class="st0" d="M136.99,76.63c1.23,0,2.46,0.98,2.46,2.95c0,0.49-0.12,0.98-0.25,1.6c-1.23,4.8-3.2,11.56-3.2,11.56
		c4.43-7.87,16.11-34.06,24.1-34.06c0.25,0,0.49,0.12,0.74,0.12c1.97,0.49,3.44,2.34,3.44,5.04v0.37
		c-0.12,5.04-2.34,17.09-3.32,22.13c-0.25,1.48-0.49,2.34-0.49,2.34c0-0.12,0-0.12,0.12-0.12l-0.49,2.09
		c2.7-3.32,7.99-9.59,11.44-10.45c0.25-0.12,0.49-0.12,0.74-0.12c4.18,0,2.95,8.24,7.26,10.82c1.35,0.74,3.07,1.11,4.8,1.11
		c6.88,0,15.86-5.29,20.29-8.61c0.49-0.25,1.11-1.23,1.6-1.6c0.25-0.12,0.49-0.25,0.61-0.25c0.37,0,0.49,0.37,0.49,0.61
		s0,0.49-0.25,0.74c-5.04,3.81-15.99,10.33-24.1,10.33c-1.85,0-3.69-0.37-5.16-1.23c-4.8-2.7-3.44-9.84-6.39-9.84
		c-0.12,0-0.25,0.12-0.49,0.12c-4.43,1.11-11.07,10.82-11.07,10.82h-0.12l-0.12,0.12c-0.61,0.61-1.35,0.86-1.84,0.86
		c-0.74,0-1.35-0.49-1.35-1.48c0-0.25,0-0.61,0.12-0.98c0.98-3.57,5.41-19.31,6.15-27.05c0.12-0.49,0.12-0.98,0.12-1.48
		c0-1.72-0.61-2.83-1.35-3.2c-0.37-0.25-0.74-0.25-1.11-0.25c-6.89,0-19.8,31.11-23.24,37.01c-1.23,2.21-2.46,3.07-3.44,3.07
		c-0.86,0-1.6-0.74-1.97-1.72c-0.12-0.25-0.12-0.49-0.12-0.74c0-2.09,1.35-6.64,1.84-11.07V86.1c0-0.49-0.49-1.72-0.49-1.97
		c0.25-2.34,1.23-5.04,1.72-5.9C135.15,77.12,136.13,76.63,136.99,76.63z"/>
</g>
<g>
	<path class="st0" d="M254.9,82.66c0.61-3.93,1.23-8.36,2.09-12.3c2.83-11.68,12.54-39.22,23.24-46.72c1.6-1.23,3.07-1.72,4.3-1.72
		c2.46,0,3.93,2.09,3.93,5.16c0,1.11-0.25,2.34-0.62,3.57c-4.18,14.88-25.7,47.09-30.37,53.73c-0.37,2.83-0.86,7.13-0.86,11.44
		c0,7.75,1.48,15.49,7.38,15.49c1.84,0,4.06-0.74,6.89-2.58c5.41-3.44,12.79-11.8,23.73-26.68c0.49-0.49,0.98-0.74,1.35-0.74
		c0.74,0,1.23,0.61,1.23,1.23c0,0.25,0,0.37-0.12,0.61c-11.07,15.12-19.8,22.87-25.45,26.44c-3.32,2.09-5.9,2.95-8.11,2.95
		c-7.5,0-9.35-10.21-9.35-19.43c0-3.44,0.25-6.64,0.62-9.22l-0.49-0.25C254.29,83.52,254.53,83.27,254.9,82.66z M286.87,29.91
		c0.12-0.74,0.25-1.6,0.25-2.21c0-2.34-0.86-4.06-2.7-4.06c-0.86,0-1.97,0.49-3.2,1.35c-9.34,6.52-18.94,35.9-21.27,45.99
		c-0.74,2.83-1.35,6.52-1.72,9.35C268.18,67.41,284.29,41.46,286.87,29.91z"/>
</g>
<g>
	<path class="st0" d="M298.3,76.14c0.12,0,0.25,0.12,0.37,0.12c0.74,0.37,0.98,1.23,0.98,1.84v0.25c0,0-3.07,6.52-3.07,11.44
		c0,0.86,0.12,1.72,0.37,2.46c0.62,1.72,1.97,2.34,3.81,2.34c5.66,0,15.99-6.15,22.01-9.96c1.6-0.98,2.95-2.83,3.57-3.2
		c0.25-0.25,0.61-0.37,0.86-0.37c0.37,0,0.61,0.12,0.61,0.49c0.12,0.12,0.12,0.37,0.12,0.49c0,0.49-0.25,0.98-0.49,1.23
		c-3.93,2.95-20.17,12.3-28.16,12.3c-2.21,0-3.81-0.74-4.43-2.46c-0.74-1.48-0.98-3.2-0.98-5.04c0-5.29,2.46-11.07,2.46-11.07
		C296.58,76.63,297.69,76.14,298.3,76.14z M301.25,70.61c0,0.74-0.49,1.23-0.98,1.23c-0.49,0-0.86-0.49-0.86-1.23
		c0-0.74,0.37-1.23,0.86-1.23C300.76,69.38,301.25,69.87,301.25,70.61z"/>
</g>
<g>
	<path class="st0" d="M336.42,43.06c0.25,0,0.49,0.12,0.62,0.25c0.74,0.37,0.98,1.48,0.98,2.46v0.61c-0.12,1.23-0.37,3.69-0.98,5.78
		c0,0.12-0.49,1.35-1.48,1.35h-0.12c-0.49-0.12-0.74-0.37-0.86-0.37c-0.12,0-0.12,0.12-0.12,0.12c-2.34,7.25-8.98,42.67-11.56,56.44
		c-1.35,8.48-2.34,17.34-2.34,23.61c0,2.95,0.25,5.16,0.74,6.64c0.37,0.98,1.11,1.35,1.48,1.48h0.12c3.81,0,6.76-13.65,6.76-26.56
		c0-7.01-0.86-13.77-2.95-17.83c-0.12-0.12-0.12-0.37-0.12-0.49c0-0.37,0.12-0.61,0.37-0.86c0,0,11.44-7.25,19.43-10.57
		c4.55-1.84,9.71-2.95,11.93-3.07h0.37c0.62,0,1.48,0,1.6,0.61c-0.12,1.35-0.37,1.48-0.74,1.48c-0.86-0.12-1.72-0.25-2.58-0.25
		c-10.57,0-27.54,10.21-28.65,12.79c1.97,3.93,2.95,10.45,2.95,17.21c0,13.4-3.44,28.28-7.99,28.28h-0.25
		c-0.98,0-1.84-0.98-2.46-2.83c-0.61-1.72-0.98-4.43-0.98-7.62c0-6.03,0.98-14.02,2.34-22.38c1.72-18.44,9.96-61.97,12.54-64.92
		C334.94,43.43,335.8,43.06,336.42,43.06z"/>
</g>
<g>
	<path class="st0" d="M360.02,86.84c-0.49,0.12-0.98,0.37-0.98,0.74c0,0.49-0.12,0.86-0.12,1.35c0,4.18,2.83,7.38,6.03,7.75
		c0.49,0,1.11,0.12,1.6,0.12c8.49,0,17.71-6.89,23.36-12.79c0.37-0.49,0.49-1.6,0.98-1.97c0.25-0.12,0.37-0.25,0.61-0.25
		c0.62,0,1.11,0.74,1.11,1.23c0,0.12,0,0.25-0.12,0.37c-5.9,6.02-16.6,14.26-25.7,14.26c-0.74,0-1.48-0.12-2.21-0.25
		c-4.8-0.74-7.5-4.67-7.5-9.35v-0.61c0.12-3.32,1.11-7.01,4.06-9.96c2.58-2.7,6.27-4.43,8.48-4.43h0.62c2.34,0,3.57,1.35,3.57,3.07
		c0,0.86-0.25,1.84-0.98,2.83C370.23,82.78,361.62,86.22,360.02,86.84z M370.1,77.74c0.25-0.37,0.37-0.74,0.37-0.98
		c0-0.25-0.12-0.25-0.37-0.25c-1.72,0-7.75,3.69-8.73,7.01C364.2,82.41,367.52,80.44,370.1,77.74z"/>
</g>
</svg>
