<?xml version="1.0" encoding="utf-8"?>
<!-- Generator: Adobe Illustrator 27.0.0, SVG Export Plug-In . SVG Version: 6.00 Build 0)  -->
<svg version="1.1" id="Layer_1" xmlns="http://www.w3.org/2000/svg" xmlns:xlink="http://www.w3.org/1999/xlink" x="0px" y="0px"
	 viewBox="0 0 453 144" style="enable-background:new 0 0 453 144;" xml:space="preserve">
<style type="text/css">
	.st0{fill:#231F20;}
</style>
<g>
	<path class="st0" d="M149.5,83.63c1.52,0,3.04,1.22,3.04,3.65c0,0.61-0.15,1.22-0.3,1.98c-1.52,5.93-3.95,14.29-3.95,14.29
		c5.47-9.73,19.92-42.12,29.8-42.12c0.3,0,0.61,0.15,0.91,0.15c2.43,0.61,4.26,2.89,4.26,6.24v0.46c-0.15,6.23-2.89,21.14-4.1,27.37
		c-0.3,1.83-0.61,2.89-0.61,2.89c0-0.15,0-0.15,0.15-0.15l-0.61,2.58c3.35-4.11,9.88-11.86,14.14-12.93
		c0.3-0.15,0.61-0.15,0.91-0.15c5.17,0,3.65,10.19,8.97,13.38c1.67,0.91,3.8,1.37,5.93,1.37c8.52,0,19.62-6.54,25.09-10.64
		c0.61-0.3,1.37-1.52,1.98-1.98c0.3-0.15,0.61-0.3,0.76-0.3c0.45,0,0.61,0.46,0.61,0.76c0,0.3,0,0.61-0.3,0.91
		c-6.23,4.71-19.77,12.77-29.8,12.77c-2.28,0-4.56-0.46-6.39-1.52c-5.93-3.35-4.26-12.17-7.91-12.17c-0.15,0-0.3,0.15-0.61,0.15
		c-5.47,1.37-13.69,13.38-13.69,13.38h-0.15l-0.15,0.15c-0.76,0.76-1.67,1.06-2.28,1.06c-0.91,0-1.67-0.61-1.67-1.82
		c0-0.3,0-0.76,0.15-1.22c1.22-4.41,6.69-23.88,7.6-33.45c0.15-0.61,0.15-1.22,0.15-1.82c0-2.13-0.76-3.5-1.67-3.95
		c-0.46-0.3-0.91-0.3-1.37-0.3c-8.51,0-24.48,38.47-28.74,45.77c-1.52,2.74-3.04,3.8-4.26,3.8c-1.06,0-1.98-0.91-2.43-2.13
		c-0.15-0.3-0.15-0.61-0.15-0.91c0-2.58,1.67-8.21,2.28-13.69v-0.15c0-0.61-0.61-2.13-0.61-2.43c0.3-2.89,1.52-6.23,2.13-7.3
		C147.21,84.24,148.43,83.63,149.5,83.63z"/>
</g>
<g>
	<path class="st0" d="M234.49,91.08c0.76-4.87,1.52-10.34,2.59-15.21c3.5-14.45,15.51-48.51,28.74-57.78
		c1.98-1.52,3.8-2.13,5.32-2.13c3.04,0,4.87,2.58,4.87,6.39c0,1.37-0.3,2.89-0.76,4.41c-5.17,18.4-31.78,58.24-37.56,66.45
		c-0.46,3.5-1.06,8.82-1.06,14.14c0,9.58,1.82,19.16,9.12,19.16c2.28,0,5.02-0.91,8.52-3.19c6.69-4.26,15.81-14.6,29.35-33
		c0.61-0.61,1.22-0.91,1.67-0.91c0.91,0,1.52,0.76,1.52,1.52c0,0.3,0,0.46-0.15,0.76c-13.69,18.7-24.48,28.28-31.48,32.69
		c-4.1,2.58-7.3,3.65-10.04,3.65c-9.28,0-11.56-12.62-11.56-24.03c0-4.26,0.3-8.21,0.76-11.4l-0.61-0.3
		C233.73,92.15,234.04,91.84,234.49,91.08z M274.03,25.85c0.15-0.91,0.3-1.98,0.3-2.74c0-2.89-1.06-5.02-3.35-5.02
		c-1.06,0-2.43,0.61-3.95,1.67c-11.56,8.06-23.42,44.4-26.31,56.87c-0.91,3.5-1.67,8.06-2.13,11.56
		C250.92,72.23,270.84,40.14,274.03,25.85z"/>
</g>
</svg>
