<?xml version="1.0" encoding="utf-8"?>
<!-- Generator: Adobe Illustrator 27.0.0, SVG Export Plug-In . SVG Version: 6.00 Build 0)  -->
<svg version="1.1" xmlns="http://www.w3.org/2000/svg" xmlns:xlink="http://www.w3.org/1999/xlink" x="0px" y="0px"
	 viewBox="0 0 3000 3000" style="enable-background:new 0 0 3000 3000;" xml:space="preserve">
<style type="text/css">
	.st0{display:none;}
	.st1{display:inline;fill:#0C0C0C;}
	.st2{display:none;fill:#FFFFFF;}
	.st3{fill:#3B373C;}
	.st4{fill:#D2B084;}
</style>
<g id="Layer_2" class="st0">
	<rect x="3194.87" y="34.37" class="st1" width="2964.88" height="1127.75"/>
</g>
<g id="Layer_3">
	<rect x="0" y="0" class="st2" width="3000" height="3000"/>
	<g id="Layer_4">
	</g>
	<g>
		<g>
			<path class="st3" d="M628.08,2311.63c2.91-0.48,6.06-3.09,9.46-7.82c3.39-4.73,5.09-13.52,5.09-26.38v-181.92l-95.32,220.12
				l-96.78-219.75v179.73c0,13.1,2.12,22.26,6.36,27.47c4.24,5.22,8.06,8.07,11.46,8.55h-53.85c3.64-0.48,7.64-3.21,12-8.19
				c4.37-4.97,6.55-14.25,6.55-27.83v-182.28c0-11.64-2.07-19.65-6.19-24.01c-4.13-4.36-8.25-7.03-12.37-8h49.11l89.14,203.39
				l87.68-203.39h44.02c-3.16,0.49-6.55,3.04-10.19,7.64c-3.64,4.61-5.46,13.1-5.46,25.47v184.47c0,12.13,1.82,20.5,5.46,25.1
				c3.64,4.61,7.03,7.16,10.19,7.64H628.08z"/>
			<path class="st3" d="M822.18,2120.62c11.03-20.13,26.56-35.78,46.57-46.94c20.01-11.15,43.12-16.74,69.32-16.74
				c21.83,0,42.26,4.79,61.31,14.37c19.04,9.58,34.32,23.96,45.84,43.11c11.52,19.16,17.28,42.21,17.28,69.13
				c0,25.71-5.52,48.63-16.56,68.76c-11.04,20.13-26.56,35.78-46.57,46.93c-20.01,11.16-43.12,16.74-69.32,16.74
				c-21.83,0-42.26-4.79-61.31-14.37c-19.04-9.58-34.32-23.95-45.84-43.11c-11.52-19.16-17.28-42.21-17.28-69.13
				C805.62,2163.67,811.14,2140.75,822.18,2120.62z M1019.74,2129.16c-9.1-17.83-21.59-31.77-37.48-41.84
				c-15.89-10.06-33.78-15.1-53.66-15.1c-18.19,0-34.39,4.61-48.57,13.82c-14.19,9.22-25.29,22.26-33.29,39.11
				c-8,16.86-12.01,36.45-12.01,58.76c0,22.08,4.55,42.02,13.64,59.85c9.1,17.83,21.59,31.78,37.48,41.84
				c15.88,10.07,33.77,15.1,53.66,15.1c18.19,0,34.39-4.6,48.57-13.82c14.19-9.21,25.29-22.25,33.29-39.11
				c8-16.85,12.01-36.44,12.01-58.76C1033.39,2166.95,1028.84,2146.99,1019.74,2129.16z"/>
			<path class="st3" d="M1394.31,2311.63c2.91-0.48,6.06-3.09,9.46-7.82c3.39-4.73,5.09-13.52,5.09-26.38v-181.92l-95.32,220.12
				l-96.78-219.75v179.73c0,13.1,2.12,22.26,6.36,27.47c4.24,5.22,8.06,8.07,11.46,8.55h-53.85c3.64-0.48,7.64-3.21,12-8.19
				c4.37-4.97,6.55-14.25,6.55-27.83v-182.28c0-11.64-2.07-19.65-6.19-24.01c-4.13-4.36-8.25-7.03-12.37-8h49.11l89.14,203.39
				l87.68-203.39h44.02c-3.16,0.49-6.55,3.04-10.19,7.64c-3.64,4.61-5.46,13.1-5.46,25.47v184.47c0,12.13,1.82,20.5,5.46,25.1
				c3.64,4.61,7.03,7.16,10.19,7.64H1394.31z"/>
			<path class="st3" d="M1757.59,2073.13c-2.31-4.97-4.91-8.31-7.82-10.01c-2.91-1.69-4.37-2.3-4.37-1.82h57.85
				c0-0.48-1.46,0.13-4.37,1.82c-2.91,1.7-5.58,5.04-8,10.01c-2.43,4.97-3.64,12.31-3.64,22.01v201.93h59.67
				c10.92,0,20.31-2.24,28.2-6.73c7.88-4.49,13.52-10.24,16.91-17.28l-6.55,38.57H1745.4c0,0.73,1.46,0.18,4.37-1.64
				c2.91-1.82,5.51-5.46,7.82-10.91c2.31-5.46,3.46-13.4,3.46-23.83v-180.1C1761.05,2085.45,1759.89,2078.11,1757.59,2073.13z"/>
			<path class="st3" d="M2006.27,2309.99c2.91-1.82,5.58-5.21,8-10.19c2.42-4.97,3.64-12.31,3.64-22.01v-182.64
				c0-9.7-1.15-17.04-3.46-22.01c-2.31-4.97-4.91-8.31-7.82-10.01c-2.91-1.69-4.37-2.3-4.37-1.82h57.85c0-0.48-1.46,0.13-4.37,1.82
				c-2.91,1.7-5.58,5.04-8,10.01c-2.43,4.97-3.64,12.31-3.64,22.01v182.64c0,9.71,1.21,17.04,3.64,22.01
				c2.42,4.97,5.09,8.31,8,10.01c2.91,1.7,4.37,2.3,4.37,1.82h-58.21C2001.9,2312.36,2003.35,2311.81,2006.27,2309.99z"/>
			<path class="st3" d="M2230.39,2075.86v103.33h62.94c8.97,0,14.98-1.33,18.01-4c3.03-2.67,4.54-4.85,4.54-6.55v35.66
				c0-0.73-0.54-1.88-1.64-3.46c-1.09-1.57-3.28-3.15-6.55-4.73c-3.28-1.57-8.07-2.36-14.37-2.36h-62.94v84.04
				c0,9.46,1.21,16.68,3.64,21.65c2.42,4.97,5.09,8.37,8,10.19c2.91,1.82,4.37,2.48,4.37,2h-57.85c0,0.48,1.46-0.12,4.37-1.82
				c2.91-1.7,5.51-5.03,7.82-10.01c2.31-4.97,3.46-12.31,3.46-22.01v-180.83c0-9.94-1.15-17.52-3.46-22.74
				c-2.31-5.22-4.91-8.85-7.82-10.92c-2.91-2.06-4.37-2.73-4.37-2h131.71v37.11c-1.22-5.82-4.61-11.03-10.18-15.64
				c-5.58-4.6-13.46-6.91-23.65-6.91H2230.39z"/>
			<path class="st3" d="M2441.77,2311.63c0,0.73,1.46,0.18,4.37-1.64c2.91-1.82,5.51-5.46,7.82-10.91
				c2.31-5.46,3.46-13.4,3.46-23.83V2096.6c0-9.94-1.15-17.52-3.46-22.74c-2.31-5.21-4.91-8.79-7.82-10.74
				c-2.91-1.94-4.37-2.54-4.37-1.82h131.71v36.39c-4.37-14.55-17.46-21.83-39.29-21.83h-50.57v103.33h62.57
				c4.85,0,8.97-0.79,12.37-2.37c3.4-1.57,5.94-3.21,7.64-4.91c1.69-1.69,2.67-2.79,2.91-3.27v35.29c-0.24-0.48-1.22-1.57-2.91-3.28
				c-1.7-1.69-4.18-3.27-7.46-4.73c-3.28-1.46-7.34-2.18-12.19-2.18h-62.94v103.33h56.76c10.91,0,20.31-2.24,28.19-6.73
				c7.88-4.49,13.52-10.24,16.92-17.28l-6.55,38.57H2441.77z"/>
		</g>
		<g>
			<path class="st4" d="M628.09,1622.67c20.3,0,40.6,16.24,40.6,48.72c0,8.12-2.03,16.24-4.07,26.39
				c-20.29,79.17-52.78,190.83-52.78,190.83c73.08-129.93,265.94-562.34,397.9-562.34c4.07,0,8.12,2.03,12.18,2.03
				c32.48,8.12,56.85,38.57,56.85,83.23v6.09c-2.04,83.24-38.57,282.19-54.82,365.42c-4.06,24.36-8.12,38.57-8.12,38.57
				c0-2.03,0-2.03,2.03-2.03l-8.12,34.51c44.66-54.81,131.96-158.35,188.8-172.56c4.06-2.03,8.12-2.03,12.18-2.03
				c69.02,0,48.72,136.02,119.77,178.65c22.33,12.18,50.76,18.27,79.18,18.27c113.68,0,261.88-87.29,334.97-142.11
				c8.12-4.06,18.27-20.3,26.4-26.39c4.06-2.03,8.12-4.06,10.15-4.06c6.09,0,8.12,6.09,8.12,10.15c0,4.06,0,8.12-4.06,12.18
				c-83.24,62.93-263.91,170.53-397.9,170.53c-30.46,0-60.9-6.09-85.27-20.3c-79.18-44.66-56.85-162.41-105.57-162.41
				c-2.03,0-4.06,2.03-8.12,2.03c-73.09,18.27-182.71,178.65-182.71,178.65h-2.03l-2.03,2.03c-10.15,10.15-22.33,14.21-30.45,14.21
				c-12.18,0-22.33-8.12-22.33-24.36c0-4.06,0-10.15,2.03-16.24c16.24-58.88,89.32-318.73,101.5-446.63
				c2.03-8.12,2.03-16.24,2.03-24.36c0-28.42-10.15-46.69-22.33-52.78c-6.09-4.06-12.18-4.06-18.27-4.06
				c-113.69,0-326.86,513.62-383.69,611.07c-20.3,36.54-40.6,50.75-56.85,50.75c-14.21,0-26.39-12.18-32.48-28.42
				c-2.03-4.06-2.03-8.12-2.03-12.18c0-34.51,22.33-109.63,30.45-182.71v-2.03c0-8.12-8.12-28.42-8.12-32.48
				c4.06-38.57,20.3-83.23,28.42-97.45C597.63,1630.79,613.87,1622.67,628.09,1622.67z"/>
			<path class="st4" d="M2440.97,1664.59c-6.11,0-14.22,4.05-22.33,12.16c-180.72,245.65-302.52,383.66-391.82,440.53
				c-46.71,30.43-83.25,42.65-113.69,42.65c-97.47,0-121.85-127.91-121.85-255.81c0-71.09,8.17-142.12,14.22-188.83
				c77.14-109.63,432.42-641.52,501.45-887.17c6.11-20.27,10.16-40.6,10.16-58.87c0-50.7-24.38-85.25-64.98-85.25
				c-20.27,0-44.65,8.11-71.03,28.44c-176.61,123.85-337.01,578.6-383.71,771.42c-13.75,62.75-23.68,133.02-33.43,196.23
				l-3.29,27.03l-1.23,10.22h0.06c-5.35,40.72-8.81,89.66-8.81,142.12c0,152.23,30.49,320.73,154.28,320.73
				c36.54,0,79.2-14.22,134.02-48.71c93.36-58.87,237.54-186.78,420.26-436.47c2-4.05,2-6.11,2-10.16
				C2461.24,1674.7,2453.13,1664.59,2440.97,1664.59z M1846.1,1494.03c38.6-166.45,196.94-651.69,351.22-759.26
				c20.33-14.22,38.6-22.33,52.82-22.33c30.43,0,44.65,28.44,44.65,66.98c0,10.16-2.06,24.38-4.05,36.54
				c-42.66,190.83-308.63,619.2-473.02,832.35C1823.77,1601.61,1833.93,1540.74,1846.1,1494.03z"/>
		</g>
	</g>
</g>
</svg>
