<?xml version="1.0" encoding="utf-8"?>
<!-- Generator: Adobe Illustrator 27.0.0, SVG Export Plug-In . SVG Version: 6.00 Build 0)  -->
<svg version="1.1" id="Layer_1" xmlns="http://www.w3.org/2000/svg" xmlns:xlink="http://www.w3.org/1999/xlink" x="0px" y="0px"
	 viewBox="0 0 453 144" style="enable-background:new 0 0 453 144;" xml:space="preserve">
<style type="text/css">
	.st0{fill:#231F20;}
</style>
<g>
	<path class="st0" d="M96.97,100.54c0.63-0.1,1.31-0.67,2.05-1.7c0.74-1.02,1.1-2.93,1.1-5.72V53.71l-20.65,47.69L58.5,53.79v38.94
		c0,2.84,0.46,4.82,1.38,5.95c0.92,1.13,1.75,1.75,2.48,1.85H50.69c0.79-0.1,1.66-0.7,2.6-1.77c0.95-1.08,1.42-3.09,1.42-6.03V53.24
		c0-2.52-0.45-4.26-1.34-5.2c-0.89-0.95-1.79-1.52-2.68-1.73h10.64l19.31,44.07l19-44.07h9.54c-0.68,0.11-1.42,0.66-2.21,1.66
		c-0.79,1-1.18,2.84-1.18,5.52v39.97c0,2.63,0.39,4.44,1.18,5.44c0.79,1,1.52,1.55,2.21,1.66H96.97z"/>
</g>
<g>
	<path class="st0" d="M123.25,59.15c2.39-4.36,5.75-7.75,10.09-10.17c4.34-2.42,9.34-3.63,15.02-3.63c4.73,0,9.16,1.04,13.28,3.11
		c4.13,2.08,7.44,5.19,9.93,9.34c2.5,4.15,3.74,9.14,3.74,14.98c0,5.57-1.2,10.54-3.59,14.9c-2.39,4.36-5.75,7.75-10.09,10.17
		c-4.34,2.42-9.34,3.63-15.02,3.63c-4.73,0-9.16-1.04-13.28-3.11c-4.13-2.08-7.44-5.19-9.93-9.34c-2.5-4.15-3.74-9.14-3.74-14.98
		C119.66,68.48,120.86,63.52,123.25,59.15z M166.06,61.01c-1.97-3.86-4.68-6.88-8.12-9.07c-3.44-2.18-7.32-3.27-11.63-3.27
		c-3.94,0-7.45,1-10.52,3c-3.07,2-5.48,4.82-7.21,8.47c-1.73,3.65-2.6,7.9-2.6,12.73c0,4.78,0.99,9.11,2.96,12.97
		c1.97,3.86,4.68,6.89,8.12,9.07c3.44,2.18,7.32,3.27,11.63,3.27c3.94,0,7.45-1,10.52-3c3.07-2,5.48-4.82,7.21-8.47
		c1.73-3.65,2.6-7.9,2.6-12.73C169.01,69.19,168.03,64.87,166.06,61.01z"/>
</g>
<g>
	<path class="st0" d="M231.44,100.54c0.63-0.1,1.31-0.67,2.05-1.7c0.74-1.02,1.1-2.93,1.1-5.72V53.71l-20.65,47.69l-20.97-47.61
		v38.94c0,2.84,0.46,4.82,1.38,5.95c0.92,1.13,1.75,1.75,2.48,1.85h-11.67c0.79-0.1,1.66-0.7,2.6-1.77
		c0.95-1.08,1.42-3.09,1.42-6.03V53.24c0-2.52-0.45-4.26-1.34-5.2c-0.89-0.95-1.79-1.52-2.68-1.73h10.64l19.31,44.07l19-44.07h9.54
		c-0.68,0.11-1.42,0.66-2.21,1.66c-0.79,1-1.18,2.84-1.18,5.52v39.97c0,2.63,0.39,4.44,1.18,5.44c0.79,1,1.52,1.55,2.21,1.66H231.44
		z"/>
</g>
<g>
	<path class="st0" d="M278.62,48.87c-0.5-1.08-1.06-1.8-1.69-2.17c-0.63-0.37-0.95-0.5-0.95-0.39h12.53c0-0.1-0.32,0.03-0.95,0.39
		c-0.63,0.37-1.21,1.09-1.73,2.17c-0.53,1.08-0.79,2.67-0.79,4.77v43.75h12.93c2.36,0,4.4-0.49,6.11-1.46
		c1.71-0.97,2.93-2.22,3.67-3.74l-1.42,8.36h-30.35c0,0.16,0.32,0.04,0.95-0.35c0.63-0.39,1.19-1.18,1.69-2.36
		c0.5-1.18,0.75-2.9,0.75-5.16V53.63C279.37,51.53,279.12,49.94,278.62,48.87z"/>
</g>
<g>
	<path class="st0" d="M316.73,100.18c0.63-0.39,1.21-1.13,1.73-2.21c0.52-1.08,0.79-2.67,0.79-4.77V53.63c0-2.1-0.25-3.69-0.75-4.77
		c-0.5-1.08-1.06-1.8-1.69-2.17c-0.63-0.37-0.95-0.5-0.95-0.39h12.53c0-0.1-0.32,0.03-0.95,0.39c-0.63,0.37-1.21,1.09-1.73,2.17
		c-0.53,1.08-0.79,2.67-0.79,4.77v39.57c0,2.1,0.26,3.69,0.79,4.77c0.52,1.08,1.1,1.8,1.73,2.17c0.63,0.37,0.95,0.5,0.95,0.39
		h-12.61C315.78,100.7,316.1,100.58,316.73,100.18z"/>
</g>
<g>
	<path class="st0" d="M349.52,49.46v22.39h13.64c1.94,0,3.24-0.29,3.9-0.87c0.66-0.58,0.99-1.05,0.99-1.42v7.73
		c0-0.16-0.12-0.41-0.35-0.75c-0.24-0.34-0.71-0.68-1.42-1.02c-0.71-0.34-1.75-0.51-3.11-0.51h-13.64v18.21
		c0,2.05,0.26,3.61,0.79,4.69c0.52,1.08,1.1,1.81,1.73,2.21c0.63,0.39,0.95,0.54,0.95,0.43h-12.53c0,0.1,0.32-0.03,0.95-0.39
		c0.63-0.37,1.19-1.09,1.69-2.17c0.5-1.08,0.75-2.67,0.75-4.77V54.03c0-2.15-0.25-3.8-0.75-4.93c-0.5-1.13-1.06-1.92-1.69-2.36
		c-0.63-0.45-0.95-0.59-0.95-0.43h28.54v8.04c-0.26-1.26-1-2.39-2.21-3.39c-1.21-1-2.92-1.5-5.12-1.5H349.52z"/>
</g>
<g>
	<path class="st0" d="M379.55,100.54c0,0.16,0.32,0.04,0.95-0.35c0.63-0.39,1.19-1.18,1.69-2.36c0.5-1.18,0.75-2.9,0.75-5.16V53.95
		c0-2.15-0.25-3.8-0.75-4.93c-0.5-1.13-1.06-1.9-1.69-2.33c-0.63-0.42-0.95-0.55-0.95-0.39h28.54v7.88
		c-0.95-3.15-3.78-4.73-8.51-4.73h-10.96v22.39h13.56c1.05,0,1.94-0.17,2.68-0.51c0.74-0.34,1.29-0.7,1.66-1.06
		c0.37-0.37,0.58-0.6,0.63-0.71v7.65c-0.05-0.1-0.26-0.34-0.63-0.71c-0.37-0.37-0.91-0.71-1.62-1.02c-0.71-0.32-1.59-0.47-2.64-0.47
		h-13.64v22.39h12.3c2.36,0,4.4-0.49,6.11-1.46c1.71-0.97,2.93-2.22,3.67-3.74l-1.42,8.36H379.55z"/>
</g>
</svg>
